<svg xmlns="http://www.w3.org/2000/svg" width="100" height="31.063" viewBox="0 0 128 31.063">
  <g id="Group_67" data-name="Group 67" transform="translate(-8 144.1)">
    <path id="Path_252" data-name="Path 252" d="M8-113.093V-144h5.776v30.907Zm5.854,0v-5.073h5v5.073Zm5,0v-5.073q.468,0,.7.7a11.208,11.208,0,0,1,.156,1.873,11.208,11.208,0,0,1-.156,1.873C19.4-113.327,19.161-113.093,18.849-113.093Z" transform="translate(0 -0.022)" fill="#fff"/>
    <path id="Path_253" data-name="Path 253" d="M21.659-113.115q-.468,0-.7-.7a11.209,11.209,0,0,1-.156-1.873,11.208,11.208,0,0,1,.156-1.873q.117-.7.7-.7Zm0,0v-5.073H29.62l-3.434,2.81v-19.746h5.854v21.932H21.659Zm4.6-25.99v-5h5.854v5Zm5.854,25.99v-5.073h4.6v5.073Zm4.527,0v-5.073q.468,0,.7.7a11.209,11.209,0,0,1,.156,1.873,11.208,11.208,0,0,1-.156,1.873A.683.683,0,0,1,36.644-113.115Z" transform="translate(-2.81)" fill="#10bab9"/>
    <path id="Path_254" data-name="Path 254" d="M40.859-112.72q-.468,0-.7-.7A11.208,11.208,0,0,1,40-115.3a11.208,11.208,0,0,1,.156-1.873q.117-.7.7-.7Zm0,0v-5.073h10.38l-3.434,2.81v-19.746H53.58V-112.8H40.859Zm1.8-24.585v-5h5.854v5Zm5.932,0v-5h5.854v5Z" transform="translate(-7.024 -0.395)" fill="#fff"/>
    <path id="Path_255" data-name="Path 255" d="M61.1-113.093V-144h5.776v30.907Zm5.854,0v-5.073h5v5.073Zm5,0v-5.073q.468,0,.7.7a11.209,11.209,0,0,1,.156,1.873,11.209,11.209,0,0,1-.156,1.873C72.5-113.327,72.261-113.093,71.949-113.093Z" transform="translate(-11.656 -0.022)" fill="#fff"/>
    <path id="Path_256" data-name="Path 256" d="M74.759-110.612q-.468,0-.7-.7a11.209,11.209,0,0,1-.156-1.873,11.209,11.209,0,0,1,.156-1.873c.156-.468.312-.7.7-.7Zm0,0v-5.073H97.393l-2.654,2.263v-8.039a9.307,9.307,0,0,0-.546-3.668A3.257,3.257,0,0,0,92.4-127a8.886,8.886,0,0,0-3.59-.546,26.545,26.545,0,0,0-3.512.234,12.111,12.111,0,0,0-2.654.624l3.59-3.434c-.156.7-.312,1.483-.468,2.5s-.312,2.107-.39,3.278a24.724,24.724,0,0,0-.156,3.356c0,1.015.078,2.107.156,3.2s.234,2.107.312,2.966c.156.859.234,1.4.312,1.717l-5.541,1.561c-.078-.39-.234-1.093-.468-2.029-.156-.937-.312-2.029-.468-3.356a33.428,33.428,0,0,1-.234-4.059,36.106,36.106,0,0,1,.234-4.215c.156-1.327.312-2.576.468-3.668s.39-1.951.546-2.654a20.375,20.375,0,0,1,3.278-.78,31.407,31.407,0,0,1,4.917-.39,17.405,17.405,0,0,1,6.556,1.093,7.47,7.47,0,0,1,3.9,3.512,14.278,14.278,0,0,1,1.327,6.634v10.771H74.759Z" transform="translate(-14.466 -2.502)" fill="#fff"/>
    <path id="Path_257" data-name="Path 257" d="M114.2-110.59v-5.073h15.844l-3.98,3.434v-7.337a15.468,15.468,0,0,0-.624-4.839,3.853,3.853,0,0,0-2.107-2.42,9.575,9.575,0,0,0-3.98-.7h-3.512V-132.6h3.512a16.578,16.578,0,0,1,6.868,1.327,9.179,9.179,0,0,1,4.293,4.137A15.787,15.787,0,0,1,132-119.644v8.976H114.2Zm17.8,0v-5.073h4.6v5.073Zm4.527,0v-5.073q.468,0,.7.7a11.207,11.207,0,0,1,.156,1.873,11.209,11.209,0,0,1-.156,1.873A.683.683,0,0,1,136.522-110.59Z" transform="translate(-23.312 -2.524)" fill="#fff"/>
    <path id="Path_258" data-name="Path 258" d="M142.559-112.939q-.468,0-.7-.7a11.207,11.207,0,0,1-.156-1.873,11.209,11.209,0,0,1,.156-1.873c.156-.468.312-.7.7-.7Zm0,0v-5.073h18.81l-1.951,1.639v-8.117a4.957,4.957,0,0,0-1.639-3.98c-1.093-.937-2.81-1.327-5.151-1.327-.7,0-1.561.078-2.732.156s-2.42.234-3.824.468l-.546-4.6c1.249-.312,2.5-.546,3.824-.78a21.653,21.653,0,0,1,3.824-.312,14.751,14.751,0,0,1,6.322,1.249,10.233,10.233,0,0,1,4.293,3.59,10.1,10.1,0,0,1,1.561,5.62v11.551h-22.79Zm7.571-25.366v-5h5.854v5Z" transform="translate(-29.349 -0.176)" fill="#fff"/>
  </g>
</svg>
