<svg xmlns="http://www.w3.org/2000/svg" width="36" height="27" viewBox="0 0 36 27">
  <g id="email" transform="translate(0 -3)">
    <path id="email-2" data-name="email" d="M30,3H6A6.018,6.018,0,0,0,0,9V24a6.018,6.018,0,0,0,6,6H30a6.018,6.018,0,0,0,6-6V9A6.018,6.018,0,0,0,30,3Zm2.4,8.7L20.55,19.65A5.057,5.057,0,0,1,18,20.4a5.057,5.057,0,0,1-2.55-.75L3.6,11.7a1.586,1.586,0,0,1-.3-2.1,1.586,1.586,0,0,1,2.1-.3l11.85,7.95a1.625,1.625,0,0,0,1.65,0L30.75,9.3a1.475,1.475,0,0,1,2.1.45A1.636,1.636,0,0,1,32.4,11.7Z" fill="#fff"/>
  </g>
</svg>
