<svg xmlns="http://www.w3.org/2000/svg" width="69.075" height="69.076" viewBox="0 0 69.075 69.076">
  <g id="icon-8" transform="translate(0)">
    <path id="Path_214" data-name="Path 214" d="M12.793,21.586A10.793,10.793,0,1,1,23.586,10.793,10.793,10.793,0,0,1,12.793,21.586Zm0-17.269a6.476,6.476,0,1,0,6.476,6.476,6.476,6.476,0,0,0-6.476-6.476Z" transform="translate(2.318)" fill="#482555"/>
    <path id="Path_215" data-name="Path 215" d="M8.635,26.2H4.318A2.159,2.159,0,0,1,2.2,24.469L.044,13.676a2.159,2.159,0,0,1,1.151-2.364L8.965,7.427a2.164,2.164,0,1,1,1.93,3.875L4.6,14.438l1.489,7.441H8.635a2.159,2.159,0,1,1,0,4.317Z" transform="translate(0 8.342)" fill="#482555"/>
    <path id="Path_216" data-name="Path 216" d="M17.793,26.19H9.159a2.159,2.159,0,1,1,0-4.317h6.864l1.489-7.441-6.3-3.136a2.159,2.159,0,1,1,1.93-3.862l7.771,3.886a2.159,2.159,0,0,1,1.151,2.351L19.909,24.463A2.159,2.159,0,0,1,17.793,26.19Z" transform="translate(8.111 8.348)" fill="#482555"/>
    <path id="Path_217" data-name="Path 217" d="M30.793,37.586A10.793,10.793,0,1,1,41.586,26.793,10.793,10.793,0,0,1,30.793,37.586Zm0-17.269a6.476,6.476,0,1,0,6.476,6.476,6.476,6.476,0,0,0-6.476-6.476Z" transform="translate(23.173 18.538)" fill="#482555"/>
    <path id="Path_218" data-name="Path 218" d="M26.634,42.192H22.317A2.159,2.159,0,0,1,20.2,40.465L18.043,29.672a2.159,2.159,0,0,1,1.151-2.355l7.771-3.886a2.159,2.159,0,1,1,1.93,3.862l-6.3,3.141,1.489,7.441h2.547a2.159,2.159,0,0,1,0,4.317Z" transform="translate(20.856 26.884)" fill="#482555"/>
    <path id="Path_219" data-name="Path 219" d="M35.793,42.19H27.159a2.159,2.159,0,0,1,0-4.317h6.864l1.489-7.441-6.3-3.136a2.159,2.159,0,1,1,1.93-3.862l7.771,3.886a2.159,2.159,0,0,1,1.151,2.351L37.909,40.463A2.159,2.159,0,0,1,35.793,42.19Z" transform="translate(28.966 26.886)" fill="#482555"/>
    <path id="Path_220" data-name="Path 220" d="M35.428,25.586a2.159,2.159,0,0,1-2.159-2.159V19.11A10.806,10.806,0,0,0,22.476,8.317H18.159a2.159,2.159,0,0,1,0-4.317h4.317a15.128,15.128,0,0,1,15.11,15.11v4.317A2.159,2.159,0,0,1,35.428,25.586Z" transform="translate(18.538 4.634)" fill="#10bab9"/>
    <path id="Path_221" data-name="Path 221" d="M20.476,14.952a2.158,2.158,0,0,1-1.526-.632L14.632,10a2.159,2.159,0,0,1,0-3.052l4.317-4.317A2.158,2.158,0,1,1,22,5.685L19.211,8.476,22,11.267a2.159,2.159,0,0,1-1.526,3.685Z" transform="translate(16.221 2.317)" fill="#10bab9"/>
    <path id="Path_222" data-name="Path 222" d="M21.11,39.586H16.793A10.806,10.806,0,0,1,6,28.793V20.159a2.159,2.159,0,1,1,4.317,0v8.634a6.476,6.476,0,0,0,6.476,6.476H21.11a2.159,2.159,0,1,1,0,4.317Z" transform="translate(6.952 20.855)" fill="#10bab9"/>
    <path id="Path_223" data-name="Path 223" d="M14.159,36.952a2.159,2.159,0,0,1-1.526-3.685l2.791-2.791-2.791-2.791a2.158,2.158,0,1,1,3.053-3.053L20,28.95A2.159,2.159,0,0,1,20,32l-4.317,4.317A2.159,2.159,0,0,1,14.159,36.952Z" transform="translate(13.904 27.807)" fill="#10bab9"/>
  </g>
</svg>
