<svg xmlns="http://www.w3.org/2000/svg" width="67.521" height="46.421" viewBox="0 0 67.521 46.421">
  <g id="icon-12" transform="translate(0 -5)">
    <path id="Path_246" data-name="Path 246" d="M7.11,36.321A2.11,2.11,0,0,1,5,34.211V13.11a2.11,2.11,0,0,1,4.22,0v21.1A2.11,2.11,0,0,1,7.11,36.321Z" transform="translate(5.55 6.66)" fill="#10bab9"/>
    <path id="Path_247" data-name="Path 247" d="M12.11,36.321A2.11,2.11,0,0,1,10,34.211V13.11a2.11,2.11,0,0,1,4.22,0v21.1A2.11,2.11,0,0,1,12.11,36.321Z" transform="translate(11.1 6.66)" fill="#10bab9"/>
    <path id="Path_248" data-name="Path 248" d="M17.11,36.321A2.11,2.11,0,0,1,15,34.211V13.11a2.11,2.11,0,0,1,4.22,0v21.1A2.11,2.11,0,0,1,17.11,36.321Z" transform="translate(16.651 6.66)" fill="#10bab9"/>
    <path id="Path_249" data-name="Path 249" d="M22.11,36.321A2.11,2.11,0,0,1,20,34.211V13.11a2.11,2.11,0,0,1,4.22,0v21.1A2.11,2.11,0,0,1,22.11,36.321Z" transform="translate(22.201 6.66)" fill="#10bab9"/>
    <path id="Path_250" data-name="Path 250" d="M27.11,36.321A2.11,2.11,0,0,1,25,34.211V13.11a2.11,2.11,0,0,1,4.22,0v21.1A2.11,2.11,0,0,1,27.11,36.321Z" transform="translate(27.751 6.66)" fill="#10bab9"/>
    <path id="Path_251" data-name="Path 251" d="M65.411,47.2V13.44a2.11,2.11,0,0,0,0-4.22h-8.44V7.11a2.11,2.11,0,0,0-4.22,0V9.22H12.66V7.11a2.11,2.11,0,0,0-4.22,0V9.22H2.11a2.11,2.11,0,0,0,0,4.22V47.2a2.11,2.11,0,0,0,0,4.22h63.3a2.11,2.11,0,0,0,0-4.22Zm-4.22,0H6.33V13.44H61.191Z" fill="#482555"/>
  </g>
</svg>
