<svg id="icon-10" xmlns="http://www.w3.org/2000/svg" width="58.316" height="58.316" viewBox="0 0 58.316 58.316">
  <path id="Path_244" data-name="Path 244" d="M56.494,54.672V27.336a27.336,27.336,0,1,0-54.672,0V54.672a1.822,1.822,0,0,0,0,3.645H56.494a1.822,1.822,0,0,0,0-3.645ZM32.8,43.737h-7.29v-7.29H32.8Zm-9.112,3.645h3.645v7.29h-7.29v-7.29Zm7.29,7.29v-7.29h7.29v7.29Zm10.934,0V45.56a1.822,1.822,0,0,0-1.822-1.822H36.448V34.625A1.822,1.822,0,0,0,34.625,32.8H23.691a1.822,1.822,0,0,0-1.822,1.822v9.112H18.224A1.822,1.822,0,0,0,16.4,45.56v9.112H12.757V29.158h32.8V54.672Zm7.29,0V27.336a1.822,1.822,0,0,0-1.822-1.822H10.934a1.822,1.822,0,0,0-1.822,1.822V54.672H5.467V27.336a23.691,23.691,0,1,1,47.382,0V54.672Z" fill="#482555"/>
  <path id="Path_245" data-name="Path 245" d="M26.579,5.822A1.822,1.822,0,0,0,24.757,4H13.822A1.851,1.851,0,0,0,12,5.822V16.757a1.822,1.822,0,0,0,1.822,1.822H24.757a1.851,1.851,0,0,0,1.822-1.822Zm-3.645,6.542-4.72-4.72h4.72Zm-7.29-2.15,4.72,4.72h-4.72Z" transform="translate(9.869 3.29)" fill="#10bab9"/>
</svg>
