<svg id="icon-4" xmlns="http://www.w3.org/2000/svg" width="68" height="67.999" viewBox="0 0 68 67.999">
  <path id="Path_189" data-name="Path 189" d="M66.638,12.149a2.125,2.125,0,0,0-2.359.574L51,27.6V18.375A6.375,6.375,0,0,0,44.624,12H6.375A6.375,6.375,0,0,0,0,18.375V48.124A6.375,6.375,0,0,0,6.375,54.5H44.624A6.375,6.375,0,0,0,51,48.124V38.838L64.28,53.713a2.125,2.125,0,0,0,1.594.786,1.955,1.955,0,0,0,.765-.149A2.125,2.125,0,0,0,68,52.374V14.125A2.125,2.125,0,0,0,66.638,12.149ZM46.749,48.124a2.125,2.125,0,0,1-2.125,2.125H6.375A2.125,2.125,0,0,1,4.25,48.124V18.375A2.125,2.125,0,0,1,6.375,16.25H44.624a2.125,2.125,0,0,1,2.125,2.125Zm17-1.339L51.721,33.25,63.749,19.714Z" transform="translate(0 13.499)" fill="#482555"/>
  <path id="Path_191" data-name="Path 191" d="M41.624,27.624h-.276A2.125,2.125,0,0,1,39.606,26.2L37.969,21.25H20.375A6.375,6.375,0,0,1,14,14.875v-8.5A6.375,6.375,0,0,1,20.375,0h25.5a6.375,6.375,0,0,1,6.375,6.375v8.5a6.375,6.375,0,0,1-5.164,6.375l-3.7,5.525A2.125,2.125,0,0,1,41.624,27.624ZM20.375,4.25A2.125,2.125,0,0,0,18.25,6.375v8.5A2.125,2.125,0,0,0,20.375,17H39.5a2.125,2.125,0,0,1,2.019,1.445l.744,2.252,1.849-2.741A2.125,2.125,0,0,1,45.874,17,2.125,2.125,0,0,0,48,14.875v-8.5A2.125,2.125,0,0,0,45.874,4.25Z" transform="translate(15.749)" fill="#10bab9"/>
  <path id="Path_192" data-name="Path 192" d="M20.125,8.25a2.125,2.125,0,0,1,0-4.25h0a2.125,2.125,0,0,1,0,4.25Z" transform="translate(20.249 4.5)" fill="#10bab9"/>
  <path id="Path_193" data-name="Path 193" d="M24.125,8.25a2.125,2.125,0,0,1,0-4.25h0a2.125,2.125,0,0,1,0,4.25Z" transform="translate(24.749 4.5)" fill="#10bab9"/>
  <path id="Path_194" data-name="Path 194" d="M28.125,8.25a2.125,2.125,0,0,1,0-4.25h0a2.125,2.125,0,1,1,0,4.25Z" transform="translate(29.249 4.5)" fill="#10bab9"/>
</svg>
