<svg id="icon-7" xmlns="http://www.w3.org/2000/svg" width="72.978" height="72.978" viewBox="0 0 72.978 72.978">
  <path id="Path_207" data-name="Path 207" d="M38.769,56.733H6.842A6.842,6.842,0,0,1,0,49.892V8.842A6.842,6.842,0,0,1,6.842,2H27.367a2.281,2.281,0,0,1,0,4.561H6.842A2.281,2.281,0,0,0,4.561,8.842v41.05a2.281,2.281,0,0,0,2.281,2.281H38.769a2.281,2.281,0,1,1,0,4.561Z" transform="translate(0 2.561)" fill="#482555"/>
  <path id="Path_208" data-name="Path 208" d="M46.928,56.733H28.683a2.281,2.281,0,1,1,0-4.561H46.928a2.281,2.281,0,0,0,2.281-2.281V8.842a2.281,2.281,0,0,0-2.281-2.281H17.281a2.281,2.281,0,1,1,0-4.561H46.928a6.842,6.842,0,0,1,6.842,6.842v41.05A6.842,6.842,0,0,1,46.928,56.733Z" transform="translate(19.208 2.561)" fill="#482555"/>
  <path id="Path_209" data-name="Path 209" d="M9.28,42.245a2.281,2.281,0,0,1-2.039-3.3l6.842-13.683A2.281,2.281,0,0,1,18.165,27.3L11.323,40.984A2.281,2.281,0,0,1,9.28,42.245Z" transform="translate(8.965 30.732)" fill="#482555"/>
  <path id="Path_210" data-name="Path 210" d="M29.129,42.245a2.281,2.281,0,0,1-2.052-1.261L20.235,27.3a2.281,2.281,0,1,1,4.082-2.039l6.842,13.683a2.281,2.281,0,0,1-2.03,3.3Z" transform="translate(25.604 30.732)" fill="#482555"/>
  <path id="Path_211" data-name="Path 211" d="M17.281,9.122A2.281,2.281,0,0,1,15,6.842V2.281a2.281,2.281,0,0,1,4.561,0V6.842A2.281,2.281,0,0,1,17.281,9.122Z" transform="translate(19.208)" fill="#482555"/>
  <path id="Path_212" data-name="Path 212" d="M6.28,34.368a2.281,2.281,0,0,1-1.612-3.893L18.351,16.792a2.239,2.239,0,0,1,1.715-.668,2.281,2.281,0,0,1,1.649.816l9.806,11.768,21.04-21.04a2.28,2.28,0,1,1,3.225,3.225L32.981,33.7a2.242,2.242,0,0,1-1.715.666,2.281,2.281,0,0,1-1.649-.816L19.811,21.779,7.893,33.7A2.281,2.281,0,0,1,6.28,34.368Z" transform="translate(5.122 8.963)" fill="#10bab9"/>
  <path id="Path_213" data-name="Path 213" d="M33.4,19.683A2.281,2.281,0,0,1,31.122,17.4V10.561H24.281a2.281,2.281,0,1,1,0-4.561H33.4a2.281,2.281,0,0,1,2.281,2.281V17.4A2.281,2.281,0,0,1,33.4,19.683Z" transform="translate(28.172 7.683)" fill="#10bab9"/>
</svg>
