<svg xmlns="http://www.w3.org/2000/svg" width="62.999" height="51.187" viewBox="0 0 62.999 51.187">
  <g id="icon-11" transform="translate(0 -3)">
    <path id="Path_237" data-name="Path 237" d="M6,16h7.875v5.906a1.969,1.969,0,0,1-1.969,1.969H7.969A1.969,1.969,0,0,1,6,21.906Z" transform="translate(5.812 12.593)" fill="#10bab9"/>
    <path id="Path_238" data-name="Path 238" d="M22,16h7.875v5.906a1.969,1.969,0,0,1-1.969,1.969H23.969A1.969,1.969,0,0,1,22,21.906Z" transform="translate(21.312 12.593)" fill="#10bab9"/>
    <path id="Path_239" data-name="Path 239" d="M14,4h7.875V9.906a1.969,1.969,0,0,1-1.969,1.969H15.969A1.969,1.969,0,0,1,14,9.906Z" transform="translate(13.562 0.969)" fill="#10bab9"/>
    <path id="Path_240" data-name="Path 240" d="M61.03,50.249h-.354a5.906,5.906,0,0,0,.354-1.969V32.531a5.906,5.906,0,0,0-5.906-5.906h-10.2a5.906,5.906,0,0,0,.354-1.969V8.906A5.906,5.906,0,0,0,39.374,3H23.625a5.906,5.906,0,0,0-5.906,5.906v15.75a5.906,5.906,0,0,0,.354,1.969H7.875a5.906,5.906,0,0,0-5.906,5.906v15.75a5.906,5.906,0,0,0,.354,1.969H1.969a1.969,1.969,0,0,0,0,3.937H61.03a1.969,1.969,0,1,0,0-3.937ZM21.656,24.656V8.906a1.969,1.969,0,0,1,1.969-1.969h15.75a1.969,1.969,0,0,1,1.969,1.969v15.75a1.969,1.969,0,0,1-1.969,1.969H23.625A1.969,1.969,0,0,1,21.656,24.656ZM33.823,50.249H29.176a5.906,5.906,0,0,0,.354-1.969V32.531a5.906,5.906,0,0,0-.354-1.969h4.646a5.906,5.906,0,0,0-.354,1.969v15.75A5.906,5.906,0,0,0,33.823,50.249Zm-25.948,0a1.969,1.969,0,0,1-1.969-1.969V32.531a1.969,1.969,0,0,1,1.969-1.969h15.75a1.969,1.969,0,0,1,1.969,1.969v15.75a1.969,1.969,0,0,1-1.969,1.969Zm31.5,0a1.969,1.969,0,0,1-1.969-1.969V32.531a1.969,1.969,0,0,1,1.969-1.969h15.75a1.969,1.969,0,0,1,1.969,1.969v15.75a1.969,1.969,0,0,1-1.969,1.969Z" fill="#482555"/>
    <path id="Path_241" data-name="Path 241" d="M8.937,26.937H6.969a1.969,1.969,0,0,1,0-3.937H8.937a1.969,1.969,0,1,1,0,3.937Z" transform="translate(4.844 19.374)" fill="#482555"/>
    <path id="Path_242" data-name="Path 242" d="M24.937,26.937H22.969a1.969,1.969,0,1,1,0-3.937h1.969a1.969,1.969,0,1,1,0,3.937Z" transform="translate(20.343 19.374)" fill="#482555"/>
    <path id="Path_243" data-name="Path 243" d="M16.937,14.937H14.969a1.969,1.969,0,0,1,0-3.937h1.969a1.969,1.969,0,0,1,0,3.937Z" transform="translate(12.593 7.75)" fill="#482555"/>
  </g>
</svg>
