<svg xmlns="http://www.w3.org/2000/svg" width="53.999" height="86.402" viewBox="0 0 53.999 86.402">
  <g id="icon-2" transform="translate(-6)">
    <path id="Path_175" data-name="Path 175" d="M41.228,49.154l-7.02-28.118,5.216-6.377a2.7,2.7,0,1,0-4.18-3.418l-5.286,6.434h-8.24l-5.265-6.434a2.7,2.7,0,1,0-4.18,3.418l5.217,6.377-7.042,28.12a8.149,8.149,0,0,0,2.133,7.69l11.34,11.34a2.7,2.7,0,0,0,3.818,0l11.34-11.34A8.146,8.146,0,0,0,41.228,49.154Zm-5.94,3.874-9.45,9.428L16.41,53.029a2.722,2.722,0,0,1-.713-2.565l6.847-27.389h6.588l6.844,27.386a2.719,2.719,0,0,1-.71,2.568Z" transform="translate(7.161 17.425)" fill="#10bab9"/>
    <path id="Path_176" data-name="Path 176" d="M58.8,5.854,50.7.454A2.659,2.659,0,0,0,49.2.032V0H16.8V.032a2.659,2.659,0,0,0-1.5.421l-8.1,5.4a2.7,2.7,0,0,0-1.061,3.1l1.8,5.4a2.7,2.7,0,0,0,5.13-1.706L11.912,9.2l4.544-3.027L29.181,18.9,18.262,29.819l-1.544-6.175a2.7,2.7,0,1,0-5.238,1.312l2.7,10.8A2.7,2.7,0,0,0,16.07,37.7a2.743,2.743,0,0,0,.729.1,2.7,2.7,0,0,0,1.908-.791L33,22.718,47.29,37.009A2.7,2.7,0,0,0,49.2,37.8a2.751,2.751,0,0,0,.659-.081,2.7,2.7,0,0,0,1.928-1.844l8.1-27A2.7,2.7,0,0,0,58.8,5.854ZM23.317,5.4H42.681L33,15.082ZM47.911,29.994,36.817,18.9,49.542,6.175l4.59,3.062Z" transform="translate(0)" fill="#482555"/>
  </g>
</svg>
