<svg xmlns="http://www.w3.org/2000/svg" width="71.989" height="71.987" viewBox="0 0 71.989 71.987">
  <g id="icon-1" transform="translate(-0.011 -0.012)">
    <path id="Path_170" data-name="Path 170" d="M29.241,58.5A29.242,29.242,0,1,1,57.57,36.559a2.25,2.25,0,1,1-4.357-1.125,24.788,24.788,0,1,0-9.85,14.131,23.972,23.972,0,0,0,6.186-6.182,2.252,2.252,0,1,1,3.715,2.545,28.538,28.538,0,0,1-7.327,7.33,28.943,28.943,0,0,1-16.7,5.239Z" transform="translate(0 0)" fill="#482555"/>
    <path id="Path_171" data-name="Path 171" d="M41.419,48.443a7.071,7.071,0,0,1-4.967-2.057L19.509,29.443a2.25,2.25,0,1,1,3.182-3.182L39.635,43.2A2.524,2.524,0,0,0,43.2,39.635L26.261,22.691a2.25,2.25,0,1,1,3.182-3.182L46.386,36.453a7.024,7.024,0,0,1-4.967,11.99Z" transform="translate(23.556 23.555)" fill="#482555"/>
    <path id="Path_172" data-name="Path 172" d="M36.506,22.5H9.5A4.5,4.5,0,0,1,5,18V11.25A2.25,2.25,0,0,1,7.25,9H38.756a2.25,2.25,0,0,1,2.25,2.25V18A4.5,4.5,0,0,1,36.506,22.5ZM9.5,13.5V18H36.506V13.5Z" transform="translate(6.238 11.239)" fill="#77acf1"/>
    <path id="Path_173" data-name="Path 173" d="M30.755,31h-18A6.751,6.751,0,0,1,6,24.252v-9A2.25,2.25,0,0,1,8.25,13H35.255a2.25,2.25,0,0,1,2.25,2.25v9A6.751,6.751,0,0,1,30.755,31ZM10.5,17.5v6.751a2.25,2.25,0,0,0,2.25,2.25h18a2.25,2.25,0,0,0,2.25-2.25V17.5Z" transform="translate(7.489 16.24)" fill="#10bab9"/>
    <path id="Path_174" data-name="Path 174" d="M28.254,18.5h-18A2.25,2.25,0,0,1,8,16.252v-4.5A6.751,6.751,0,0,1,14.751,5h9A6.751,6.751,0,0,1,30.5,11.751v4.5A2.25,2.25,0,0,1,28.254,18.5ZM12.5,14H26v-2.25a2.25,2.25,0,0,0-2.25-2.25h-9a2.25,2.25,0,0,0-2.25,2.25Z" transform="translate(9.989 6.237)" fill="#10bab9"/>
  </g>
</svg>
