<svg xmlns="http://www.w3.org/2000/svg" width="59.374" height="67.856" viewBox="0 0 59.374 67.856">
  <g id="icon-5" transform="translate(-2)">
    <path id="Path_195" data-name="Path 195" d="M22.6,52.169H18.362A6.362,6.362,0,0,1,12,45.808V20.362A6.362,6.362,0,0,1,18.362,14H22.6a6.362,6.362,0,0,1,6.362,6.362V33.085a2.121,2.121,0,0,1-4.241,0V20.362A2.121,2.121,0,0,0,22.6,18.241H18.362a2.121,2.121,0,0,0-2.121,2.121V45.808a2.121,2.121,0,0,0,2.121,2.121H22.6a2.121,2.121,0,0,0,2.121-2.121V41.567a2.121,2.121,0,0,1,4.241,0v4.241A6.362,6.362,0,0,1,22.6,52.169Z" transform="translate(11.205 15.687)" fill="#482555"/>
    <path id="Path_196" data-name="Path 196" d="M12.6,45.446H8.362A6.362,6.362,0,0,1,2,39.085V26.362A6.362,6.362,0,0,1,8.362,20H12.6a6.362,6.362,0,0,1,6.362,6.362V39.085A6.362,6.362,0,0,1,12.6,45.446ZM8.362,24.241a2.121,2.121,0,0,0-2.121,2.121V39.085a2.121,2.121,0,0,0,2.121,2.121H12.6a2.121,2.121,0,0,0,2.121-2.121V26.362A2.121,2.121,0,0,0,12.6,24.241Z" transform="translate(0 22.41)" fill="#482555"/>
    <path id="Path_197" data-name="Path 197" d="M32.6,56.651H28.362A6.362,6.362,0,0,1,22,50.29V16.362A6.362,6.362,0,0,1,28.362,10H32.6a6.362,6.362,0,0,1,6.362,6.362v8.482a2.121,2.121,0,0,1-4.241,0V16.362A2.121,2.121,0,0,0,32.6,14.241H28.362a2.121,2.121,0,0,0-2.121,2.121V50.29a2.121,2.121,0,0,0,2.121,2.121H32.6a2.121,2.121,0,0,0,2.121-2.121V33.326a2.121,2.121,0,1,1,4.241,0V50.29A6.362,6.362,0,0,1,32.6,56.651Z" transform="translate(22.41 11.205)" fill="#482555"/>
    <path id="Path_198" data-name="Path 198" d="M9.362,22.723a6.362,6.362,0,1,1,6.362-6.362A6.362,6.362,0,0,1,9.362,22.723Zm0-8.482a2.121,2.121,0,1,0,2.121,2.121A2.121,2.121,0,0,0,9.362,14.241Z" transform="translate(1.121 11.205)" fill="#10bab9"/>
    <path id="Path_199" data-name="Path 199" d="M19.362,16.723a6.362,6.362,0,1,1,6.362-6.362A6.362,6.362,0,0,1,19.362,16.723Zm0-8.482a2.121,2.121,0,1,0,2.121,2.121A2.121,2.121,0,0,0,19.362,8.241Z" transform="translate(12.326 4.482)" fill="#10bab9"/>
    <path id="Path_200" data-name="Path 200" d="M29.362,12.723a6.362,6.362,0,1,1,6.362-6.362A6.362,6.362,0,0,1,29.362,12.723Zm0-8.482a2.121,2.121,0,1,0,2.121,2.121A2.121,2.121,0,0,0,29.362,4.241Z" transform="translate(23.531)" fill="#10bab9"/>
    <path id="Path_201" data-name="Path 201" d="M8.829,19.591a2.121,2.121,0,0,1-1.084-3.94L21.7,7.3a2.121,2.121,0,0,1,2.163,3.639L9.908,19.29A2.12,2.12,0,0,1,8.829,19.591Z" transform="translate(5.282 7.912)" fill="#10bab9"/>
    <path id="Path_202" data-name="Path 202" d="M18.972,12.324a2.121,2.121,0,0,1-.787-4.09L31.544,2.892A2.12,2.12,0,1,1,33.118,6.83L19.758,12.172A2.093,2.093,0,0,1,18.972,12.324Z" transform="translate(16.638 3.071)" fill="#10bab9"/>
  </g>
</svg>
