<svg xmlns="http://www.w3.org/2000/svg" width="71.744" height="74.139" viewBox="0 0 71.744 74.139">
  <g id="icon-6" transform="translate(0 0.035)">
    <path id="Path_203" data-name="Path 203" d="M67.116,22.425v-.208a34.715,34.715,0,0,0-64.8,0v.208a34.09,34.09,0,0,0,0,24.694v.162A34.854,34.854,0,0,0,32.239,69.476H32.4a2.314,2.314,0,0,0,2.314-2.314V64.847a2.314,2.314,0,0,0-.787-1.342A38.673,38.673,0,0,1,23.491,48.647H32.4a2.314,2.314,0,0,0,0-4.629H22.009a37.307,37.307,0,0,1-1.18-9.257A38.279,38.279,0,0,1,21.986,25.5H47.444A38.279,38.279,0,0,1,48.6,34.761a2.314,2.314,0,0,0,4.629,0,43.608,43.608,0,0,0-.994-9.25L63.32,25.5A29.831,29.831,0,0,1,64.8,34.761a2.314,2.314,0,0,0,4.629,0A34.159,34.159,0,0,0,67.116,22.425ZM27.772,64.083A30.271,30.271,0,0,1,8.077,48.647H18.515a42.792,42.792,0,0,0,9.257,15.39ZM6.133,44.018a29.276,29.276,0,0,1-1.5-9.257A29.832,29.832,0,0,1,6.11,25.5H17.2a43.625,43.625,0,0,0-1,9.257,42.352,42.352,0,0,0,1.041,9.257ZM18.515,20.875H8.054A30.086,30.086,0,0,1,27.772,5.508a42.26,42.26,0,0,0-9.257,15.367Zm4.976,0A38.788,38.788,0,0,1,34.715,5.322,38.788,38.788,0,0,1,45.963,20.875Zm27.425,0A42.26,42.26,0,0,0,41.658,5.508,30.086,30.086,0,0,1,61.376,20.875Z" transform="translate(0 0)" fill="#482555"/>
    <path id="Path_204" data-name="Path 204" d="M22,19h9.257v6.943a2.314,2.314,0,0,1-2.314,2.314H24.314A2.314,2.314,0,0,1,22,25.943Z" transform="translate(28.915 25.018)" fill="#10bab9"/>
    <path id="Path_205" data-name="Path 205" d="M42.458,50.4H23.943A6.943,6.943,0,0,1,17,43.458V24.943A6.943,6.943,0,0,1,23.943,18H42.458A6.943,6.943,0,0,1,49.4,24.943V43.458A6.943,6.943,0,0,1,42.458,50.4ZM23.943,22.629a2.314,2.314,0,0,0-2.314,2.314V43.458a2.314,2.314,0,0,0,2.314,2.314H42.458a2.314,2.314,0,0,0,2.314-2.314V24.943a2.314,2.314,0,0,0-2.314-2.314Z" transform="translate(22.344 23.704)" fill="#482555"/>
    <path id="Path_206" data-name="Path 206" d="M25.629,30.629H23.314a2.314,2.314,0,0,1,0-4.629h2.314a2.314,2.314,0,1,1,0,4.629Z" transform="translate(27.601 34.218)" fill="#482555"/>
  </g>
</svg>
