<svg xmlns="http://www.w3.org/2000/svg" width="64" height="56" viewBox="0 0 64 56">
  <g id="icon-9" transform="translate(0 -2)">
    <path id="Path_224" data-name="Path 224" d="M32,10H12a2,2,0,0,1,0-4H32a2,2,0,0,1,0,4Z" transform="translate(10 4)" fill="#10bab9"/>
    <path id="Path_225" data-name="Path 225" d="M32,14H12a2,2,0,0,1,0-4H32a2,2,0,0,1,0,4Z" transform="translate(10 8)" fill="#10bab9"/>
    <path id="Path_226" data-name="Path 226" d="M32,18H12a2,2,0,0,1,0-4H32a2,2,0,0,1,0,4Z" transform="translate(10 12)" fill="#10bab9"/>
    <path id="Path_227" data-name="Path 227" d="M32,22H12a2,2,0,0,1,0-4H32a2,2,0,0,1,0,4Z" transform="translate(10 16)" fill="#10bab9"/>
    <path id="Path_228" data-name="Path 228" d="M10,18H6a2,2,0,0,1,0-4h4a2,2,0,0,1,0,4Z" transform="translate(4 12)" fill="#10bab9"/>
    <path id="Path_229" data-name="Path 229" d="M10,22H6a2,2,0,0,1,0-4h4a2,2,0,0,1,0,4Z" transform="translate(4 16)" fill="#10bab9"/>
    <path id="Path_230" data-name="Path 230" d="M30,18H26a2,2,0,0,1,0-4h4a2,2,0,0,1,0,4Z" transform="translate(24 12)" fill="#10bab9"/>
    <path id="Path_231" data-name="Path 231" d="M30,22H26a2,2,0,0,1,0-4h4a2,2,0,0,1,0,4Z" transform="translate(24 16)" fill="#10bab9"/>
    <path id="Path_232" data-name="Path 232" d="M18,58H8a2,2,0,0,1-2-2V8a6,6,0,0,1,6-6H40a6,6,0,0,1,6,6v4a2,2,0,0,1-4,0V8a2,2,0,0,0-2-2H12a2,2,0,0,0-2,2V54h8a2,2,0,0,1,0,4Z" transform="translate(6)" fill="#482555"/>
    <path id="Path_233" data-name="Path 233" d="M35,47H17a2,2,0,0,1,0-4H33V15a2,2,0,0,1,4,0V45A2,2,0,0,1,35,47Z" transform="translate(15 11)" fill="#482555"/>
    <path id="Path_234" data-name="Path 234" d="M14,50H2a2,2,0,0,1-2-2V16a6,6,0,0,1,6-6h8a2,2,0,0,1,2,2V48A2,2,0,0,1,14,50ZM4,46h8V14H6a2,2,0,0,0-2,2Z" transform="translate(0 8)" fill="#482555"/>
    <path id="Path_235" data-name="Path 235" d="M38,50H26a2,2,0,0,1-2-2V12a2,2,0,0,1,2-2h8a6,6,0,0,1,6,6V48A2,2,0,0,1,38,50ZM28,46h8V16a2,2,0,0,0-2-2H28Z" transform="translate(24 8)" fill="#482555"/>
    <path id="Path_236" data-name="Path 236" d="M29,38a2,2,0,0,1-2-2V26H15V36a2,2,0,0,1-4,0V26a4,4,0,0,1,4-4H27a4,4,0,0,1,4,4V36A2,2,0,0,1,29,38Z" transform="translate(11 20)" fill="#482555"/>
  </g>
</svg>
