<svg id="Lines-Logo" xmlns="http://www.w3.org/2000/svg" width="122" height="57.117" viewBox="0 0 122 57.117">
  <g id="Group_41" data-name="Group 41">
    <path id="Path_70" data-name="Path 70" d="M174.4,400.3v35.323h20.763v-5.284l-14.541-.094V400.3Z" transform="translate(-174.4 -391.53)" fill="#fff"/>
    <rect id="Rectangle_37" data-name="Rectangle 37" width="6.334" height="25.485" transform="translate(26.366 18.608)" fill="#10bab9"/>
    <path id="Path_71" data-name="Path 71" d="M380.3,400.3v35.323h6.109V415.4l22.356,20.219V400.3h-6.015l.112,20.725Z" transform="translate(-341.716 -391.53)" fill="#fff"/>
    <path id="Path_72" data-name="Path 72" d="M565.4,400.3h21.812v5.715H571.4v8.433h13.286v5.584H571.4v9.819h15.816v5.772H565.4Z" transform="translate(-492.13 -391.53)" fill="#fff"/>
    <path id="Path_73" data-name="Path 73" d="M724.031,408.88l3.373-4.647a19.22,19.22,0,0,0-10.007-4.141,10.474,10.474,0,0,0-8.62,3.542,9.727,9.727,0,0,0-1.2,9.95c1.368,3.167,3.935,4.647,6.915,5.978,2.267,1.012,6.952,2.342,7.533,5.228.562,2.848-.881,4.46-4.647,4.947s-8.077-3.055-8.077-3.055-3.785,4.347-3.8,4.366c-.037.056,2.267,1.687,2.4,1.761a17.687,17.687,0,0,0,6,2.623,12.73,12.73,0,0,0,9.95-2.042,11.04,11.04,0,0,0,4.1-8.227c.637-7.589-9.726-9.988-12.405-11.487s-3.242-3.242-3.129-4.216.656-3.411,4.31-3.3S724.031,408.88,724.031,408.88Z" transform="translate(-605.975 -391.34)" fill="#fff"/>
    <g id="Group_60" data-name="Group 60">
      <path id="Path_74" data-name="Path 74" d="M175.6,614.3h3.785v.319H177.68v5.659h-.375v-5.659H175.6V614.3Z" transform="translate(-175.375 -565.429)" fill="#fff"/>
      <path id="Path_75" data-name="Path 75" d="M201.667,626.041a2.372,2.372,0,1,1,2.286-2.38A2.205,2.205,0,0,1,201.667,626.041Zm0-.337a2.049,2.049,0,1,0-1.874-2.043A1.838,1.838,0,0,0,201.667,625.7Z" transform="translate(-194.715 -571.117)" fill="#fff"/>
      <path id="Path_76" data-name="Path 76" d="M232.324,621.3a2.375,2.375,0,0,1,0,4.741,1.983,1.983,0,0,1-1.949-1.274v3.392H230v-6.8h.375v1.218A1.959,1.959,0,0,1,232.324,621.3Zm-.056.319a2.049,2.049,0,0,0,0,4.085,2.049,2.049,0,0,0,0-4.085Z" transform="translate(-219.581 -571.117)" fill="#fff"/>
      <path id="Path_77" data-name="Path 77" d="M273.775,614.3v5.659H276v.319h-2.6V614.3Z" transform="translate(-254.849 -565.429)" fill="#fff"/>
      <path id="Path_78" data-name="Path 78" d="M291.2,612.837a.332.332,0,0,1,.319-.337.31.31,0,0,1,.319.337.321.321,0,0,1-.319.337A.31.31,0,0,1,291.2,612.837Zm.131,1.368h.375v4.629h-.375Z" transform="translate(-269.313 -563.966)" fill="#fff"/>
      <path id="Path_79" data-name="Path 79" d="M304.979,623.043a1.493,1.493,0,0,0-1.555-1.705c-.956,0-1.649.6-1.649,1.893v2.492H301.4v-4.629h.375v.974A1.727,1.727,0,0,1,303.48,621a1.776,1.776,0,0,1,1.855,2.005v2.7h-.375v-2.661Z" transform="translate(-277.602 -570.873)" fill="#fff"/>
      <path id="Path_80" data-name="Path 80" d="M330.649,626.041a2.191,2.191,0,0,1-2.249-2.38,2.166,2.166,0,0,1,2.249-2.361,2.032,2.032,0,0,1,2.155,2.061,3.615,3.615,0,0,1-.019.468h-3.991a1.786,1.786,0,0,0,1.855,1.893,1.61,1.61,0,0,0,1.724-1.256h.394A1.991,1.991,0,0,1,330.649,626.041Zm-1.855-2.549h3.635a1.68,1.68,0,0,0-1.78-1.874A1.781,1.781,0,0,0,328.793,623.492Z" transform="translate(-299.542 -571.117)" fill="#fff"/>
      <path id="Path_81" data-name="Path 81" d="M358.418,625.96c-1.012,0-1.724-.468-1.818-1.312h.394c.056.581.543.974,1.424.974.731,0,1.143-.431,1.143-.937,0-1.274-2.83-.543-2.83-2.286,0-.656.637-1.2,1.537-1.2a1.466,1.466,0,0,1,1.649,1.368h-.375a1.126,1.126,0,0,0-1.274-1.031c-.675,0-1.143.394-1.143.881,0,1.424,2.811.675,2.83,2.286A1.4,1.4,0,0,1,358.418,625.96Z" transform="translate(-322.458 -571.036)" fill="#fff"/>
      <path id="Path_82" data-name="Path 82" d="M396.517,614.637h-2.642v2.492h2.38v.319h-2.38v2.511h2.642v.319H393.5V614.3h3.017Z" transform="translate(-352.443 -565.429)" fill="#fff"/>
      <path id="Path_83" data-name="Path 83" d="M413.231,621.6l1.705,4.2,1.705-4.2h.412l-1.911,4.629h-.431L412.8,621.6Z" transform="translate(-368.126 -571.361)" fill="#fff"/>
      <path id="Path_84" data-name="Path 84" d="M440.849,626.041a2.191,2.191,0,0,1-2.249-2.38,2.166,2.166,0,0,1,2.249-2.361A2.032,2.032,0,0,1,443,623.361a3.615,3.615,0,0,1-.019.468h-3.991a1.786,1.786,0,0,0,1.855,1.893,1.61,1.61,0,0,0,1.724-1.256h.394A1.991,1.991,0,0,1,440.849,626.041Zm-1.855-2.549h3.635a1.68,1.68,0,0,0-1.78-1.874A1.781,1.781,0,0,0,438.994,623.492Z" transform="translate(-389.092 -571.117)" fill="#fff"/>
      <path id="Path_85" data-name="Path 85" d="M471.879,623.043a1.493,1.493,0,0,0-1.555-1.705c-.956,0-1.649.6-1.649,1.893v2.492H468.3v-4.629h.375v.974A1.727,1.727,0,0,1,470.38,621a1.776,1.776,0,0,1,1.855,2.005v2.7h-.375v-2.661Z" transform="translate(-413.226 -570.873)" fill="#fff"/>
      <path id="Path_86" data-name="Path 86" d="M494.593,616.718H493.9v-.337h.693V615.2h.375v1.181h1.368v.337h-1.368v3.054c0,.693.225.9.843.9h.525v.337h-.581c-.787,0-1.181-.319-1.181-1.237v-3.054Z" transform="translate(-434.029 -566.16)" fill="#fff"/>
      <path id="Path_87" data-name="Path 87" d="M525.2,615h.412l2.38,5.341,2.38-5.341h.394v5.847h-.375v-5.041l-2.249,5.041h-.3l-2.249-5.041v5.041h-.375V615Z" transform="translate(-459.464 -565.998)" fill="#fff"/>
      <path id="Path_88" data-name="Path 88" d="M563.33,621.3a1.942,1.942,0,0,1,1.949,1.274v-1.218h.375v4.629h-.375v-1.218a1.99,1.99,0,0,1-1.949,1.293,2.385,2.385,0,0,1,0-4.76Zm.056.319a2.049,2.049,0,0,0,0,4.085,2.047,2.047,0,0,0,0-4.085Z" transform="translate(-488.636 -571.117)" fill="#fff"/>
      <path id="Path_89" data-name="Path 89" d="M596.579,623.043a1.493,1.493,0,0,0-1.555-1.705c-.956,0-1.649.6-1.649,1.893v2.492H593v-4.629h.375v.974A1.727,1.727,0,0,1,595.08,621a1.776,1.776,0,0,1,1.855,2.005v2.7h-.375v-2.661Z" transform="translate(-514.559 -570.873)" fill="#fff"/>
      <path id="Path_90" data-name="Path 90" d="M622.23,621.3a1.942,1.942,0,0,1,1.949,1.274v-1.218h.375v4.629h-.375v-1.218a1.99,1.99,0,0,1-1.949,1.293,2.385,2.385,0,0,1,0-4.76Zm.056.319a2.049,2.049,0,0,0,0,4.085,2.047,2.047,0,0,0,0-4.085Z" transform="translate(-536.499 -571.117)" fill="#fff"/>
      <path id="Path_91" data-name="Path 91" d="M652.749,621.3a1.97,1.97,0,0,1,1.949,1.255v-1.2h.375v4.76a2.021,2.021,0,0,1-2.1,2.117,2.088,2.088,0,0,1-2.193-1.537h.375a1.755,1.755,0,0,0,1.8,1.218,1.678,1.678,0,0,0,1.724-1.78v-1.349a2,2,0,0,1-1.949,1.274,2.384,2.384,0,0,1,.019-4.76Zm.056.319a2.049,2.049,0,0,0,0,4.085,1.887,1.887,0,0,0,1.911-2.043A1.918,1.918,0,0,0,652.8,621.619Z" transform="translate(-561.283 -571.117)" fill="#fff"/>
      <path id="Path_92" data-name="Path 92" d="M683.449,626.041a2.191,2.191,0,0,1-2.249-2.38,2.166,2.166,0,0,1,2.249-2.361,2.032,2.032,0,0,1,2.155,2.061,3.615,3.615,0,0,1-.019.468h-3.991a1.786,1.786,0,0,0,1.855,1.893,1.61,1.61,0,0,0,1.724-1.256h.393A2,2,0,0,1,683.449,626.041Zm-1.855-2.549h3.635a1.68,1.68,0,0,0-1.78-1.874A1.781,1.781,0,0,0,681.594,623.492Z" transform="translate(-586.23 -571.117)" fill="#fff"/>
      <path id="Path_93" data-name="Path 93" d="M717.858,623.043c0-1.124-.581-1.705-1.48-1.705-.918,0-1.574.637-1.574,1.93v2.455h-.375v-2.68c0-1.124-.581-1.705-1.48-1.705-.918,0-1.574.637-1.574,1.93v2.455H711v-4.629h.375v1.012A1.668,1.668,0,0,1,713.024,621a1.647,1.647,0,0,1,1.705,1.293A1.68,1.68,0,0,1,716.453,621a1.755,1.755,0,0,1,1.8,2.005v2.7h-.375v-2.661Z" transform="translate(-610.446 -570.873)" fill="#fff"/>
      <path id="Path_94" data-name="Path 94" d="M757.849,626.041a2.191,2.191,0,0,1-2.249-2.38,2.166,2.166,0,0,1,2.249-2.361A2.032,2.032,0,0,1,760,623.361a3.615,3.615,0,0,1-.019.468h-3.991a1.786,1.786,0,0,0,1.855,1.893,1.61,1.61,0,0,0,1.724-1.256h.394A2,2,0,0,1,757.849,626.041Zm-1.855-2.549h3.617a1.68,1.68,0,0,0-1.78-1.874A1.777,1.777,0,0,0,755.994,623.492Z" transform="translate(-646.689 -571.117)" fill="#fff"/>
      <path id="Path_95" data-name="Path 95" d="M788.779,623.043a1.493,1.493,0,0,0-1.555-1.705c-.956,0-1.649.6-1.649,1.893v2.492H785.2v-4.629h.375v.974A1.727,1.727,0,0,1,787.28,621a1.776,1.776,0,0,1,1.855,2.005v2.7h-.375v-2.661Z" transform="translate(-670.742 -570.873)" fill="#fff"/>
      <path id="Path_96" data-name="Path 96" d="M811.493,616.718H810.8v-.337h.693V615.2h.375v1.181h1.368v.337h-1.368v3.054c0,.693.225.9.843.9h.525v.337h-.581c-.787,0-1.181-.319-1.181-1.237v-3.054Z" transform="translate(-691.545 -566.16)" fill="#fff"/>
    </g>
    <g id="Group_40" data-name="Group 40" transform="translate(20.632)">
      <path id="_x30__1_" d="M303.4,435.7l.225.094-.019.337Z" transform="translate(-299.858 -420.297)" fill="#267573"/>
      <path id="_x31__1_" d="M298.749,417.122l-.225-.112-1.124-2.6,1.518-1.705.675.693Z" transform="translate(-294.983 -401.607)" fill="#10bab9"/>
      <path id="Path_97" data-name="Path 97" d="M306.175,408.03l.412-1.93-1.087,1.237Z" transform="translate(-301.565 -396.243)" fill="#267573"/>
      <path id="Path_98" data-name="Path 98" d="M310.731,397.405l1.836-2.005.675.431-2.642,2.211Z" transform="translate(-305.709 -387.548)" fill="#267573"/>
      <path id="Path_99" data-name="Path 99" d="M289.11,374.388l7.121-3.3,1.761-3.916h-3.71L291,364.7h-6.5l6.971,5.64-.112.112.675.431-2.642,2.211Z" transform="translate(-284.5 -362.601)" fill="#10bab9"/>
      <path id="Path_100" data-name="Path 100" d="M289.7,353.5l6.315,1.424-.037,1.237-.75-.562h-3.916Z" transform="translate(-288.726 -353.5)" fill="#267573"/>
      <path id="Path_101" data-name="Path 101" d="M325.9,364.248l-2.661-3.148-.037,1.237,2.53,1.911Z" transform="translate(-315.948 -359.676)" fill="#267573"/>
      <path id="Path_102" data-name="Path 102" d="M353.818,377.9l-.618,1.387,2.267-.787Z" transform="translate(-340.326 -373.328)" fill="#267573"/>
    </g>
  </g>
</svg>
