<svg xmlns="http://www.w3.org/2000/svg" width="27" height="29.408" viewBox="0 0 27 29.408">
  <g id="map" transform="translate(-1.003 -0.022)">
    <path id="Path_168" data-name="Path 168" d="M27.987.778a.614.614,0,0,0-.881-.686L1.96,13.276a1.794,1.794,0,0,0-.123,3.1h0l5.6,3.538a.307.307,0,0,0,.368-.029L22.728,6.545a.306.306,0,0,1,.443.42L11.245,21.925a.307.307,0,0,0,.076.451l7.9,5a1.785,1.785,0,0,0,2.688-1.1Z" transform="translate(0)" fill="#fff"/>
    <path id="Path_169" data-name="Path 169" d="M7.973,19.191a.308.308,0,0,0-.473.259v4.4a1.228,1.228,0,0,0,2.1.868l2.477-2.476a.308.308,0,0,0-.053-.476Z" transform="translate(1.479 4.352)" fill="#fff"/>
  </g>
</svg>
