<svg id="phone" xmlns="http://www.w3.org/2000/svg" width="42" height="42" viewBox="0 0 42 42">
  <path id="Path_166" data-name="Path 166" d="M0,0H42V42H0Z" fill="none"/>
  <path id="Path_167" data-name="Path 167" d="M12.344,19.641A26.355,26.355,0,0,0,23.876,31.165l3.85-3.859a1.756,1.756,0,0,1,1.776-.429,19.921,19.921,0,0,0,6.247,1,1.744,1.744,0,0,1,1.75,1.75V35.75a1.744,1.744,0,0,1-1.75,1.75A29.747,29.747,0,0,1,6,7.75,1.75,1.75,0,0,1,7.75,6h6.125a1.744,1.744,0,0,1,1.75,1.75,19.921,19.921,0,0,0,1,6.247,1.756,1.756,0,0,1-.429,1.776Z" transform="translate(-0.75 -0.75)" fill="#fff"/>
</svg>
